<!DOCTYPE svg PUBLIC "-//W3C//DTD SVG 1.1//EN" "http://www.w3.org/Graphics/SVG/1.1/DTD/svg11.dtd">
<!-- Uploaded to: SVG Repo, www.svgrepo.com, Transformed by: SVG Repo Mixer Tools -->
<svg height="256px" width="256px" version="1.1" id="Layer_1" xmlns="http://www.w3.org/2000/svg" xmlns:xlink="http://www.w3.org/1999/xlink" viewBox="0 0 512.00 512.00" xml:space="preserve" fill="#000000" stroke="#000000" stroke-width="0.00511996">
<g id="SVGRepo_bgCarrier" stroke-width="0"/>
<g id="SVGRepo_tracerCarrier" stroke-linecap="round" stroke-linejoin="round"/>
<g id="SVGRepo_iconCarrier"> <polygon style="fill:#6D7584;" points="279.603,152.013 353.937,77.713 502.562,226.313 428.245,300.612 "/> <path style="fill:#a46e6a;" d="M348.535,321.143c-0.555-0.597-1.033-1.169-1.502-1.741c-12.928-13.013-28.083-26.411-41.446-38.229 c-9.873-8.73-19.2-16.973-26.684-24.141c0,0.017-0.034,0.026-0.111,0.026c-0.205,0-0.708-0.068-1.502-0.068 c-1.553,0-4.301,0.282-8.602,1.604l-0.802,0.247l-0.828,0.145c-6.579,1.109-13.133,4.557-21.897,11.503 c-15.94,12.638-28.083,21.589-39.108,21.589c-7.765,0-16.87-8.883-16.956-8.977c-10.069-10.069-0.137-22.204,5.803-29.457 l1.425-1.741c13.21-16.358,34.057-39.364,62.566-50.33c10.974-4.224,21.385-6.101,33.758-6.101c4.523,0,9.003,0.239,13.636,0.495 c3.789,0.205,7.68,0.427,11.802,0.486l5.146,0.077l93.107,92.049l-14.02,8.516c-15.411,9.361-27.546,17.792-36.062,25.071 l-9.336,7.979L348.535,321.143z"/> <path style="fill:#FFE7E5;" d="M238.771,430.746c-5.973,0-12.015-3.021-17.954-8.994l-34.287-34.287 c-29.193-29.21-62.78-75.802-77.099-98.304l-5.513-8.661l98.27-98.278l50.782,14.319l-20.352,15.548 c-12.117,9.25-22.366,22.212-31.403,33.638l-5.709,7.159c-3.234,4.019-5.794,7.194-8.004,9.404 c-6.246,6.246-4.949,9.745-4.326,11.418c1.382,3.746,5.598,7.962,10.94,13.295c3.362,3.362,7.364,5.06,11.921,5.06 c11.861,0,25.711-10.974,39.1-21.581c1.041-0.819,4.198-3.328,20.335-14.14l8.329-5.581l7.415,6.75 c30.831,28.066,50.987,46.985,65.357,61.355c5.53,5.521,20.233,20.215,11.426,34.253l-3.763,5.999l-7.219,0.222 c-2.261,0-4.403-0.478-7.185-1.152c-2.227-0.538-4.198-0.998-5.939-0.998c-1.894,0-3.319,0.538-4.48,1.698 c-2.551,2.543-2.799,5.052-3.089,7.953c-0.316,3.098-0.521,5.154-2.176,8.397l-3.567,6.972h-7.825c-2.261,0-4.403-0.478-7.194-1.152 c-2.33-0.58-4.173-0.998-5.948-0.998c-1.886,0-3.345,0.538-4.446,1.655c-2.594,2.594-2.842,5.086-3.14,7.979 c-0.316,3.14-0.521,5.214-2.244,8.508l-3.593,6.869h-7.748c-2.27,0-4.429-0.478-7.236-1.161c-2.065-0.495-4.045-0.964-5.888-0.964 c-1.886,0-3.337,0.538-4.429,1.63c-2.62,2.611-2.867,5.111-3.166,8.004c-0.486,4.821-1.451,8.004-5.427,12.006 C248.243,428.672,243.695,430.746,238.771,430.746z"/> <polygon style="fill:#A7B0C0;" points="9.463,226.347 158.071,77.687 232.388,152.021 83.772,300.672 "/> <path style="fill:#342723;" d="M368.7,74.368c-7.876-7.902-21.649-7.902-29.525,0l-62.925,62.899 c-8.064,8.124-8.064,21.35,0.034,29.525l17.05,16.853c-11.042-0.879-26.547,4.838-27.989,4.745l-39.083-12.109l9.455-9.455 c3.951-3.951,6.135-9.199,6.135-14.771c0-5.598-2.185-10.846-6.127-14.771l-62.891-62.925c-7.91-7.876-21.615-7.876-29.525,0.026 L6.135,211.541C2.185,215.492,0,220.749,0,226.347c0,5.572,2.185,10.829,6.127,14.754L69.001,304 c3.934,3.951,9.19,6.127,14.763,6.127s10.812-2.176,14.771-6.127l4.318-4.318c11.136,23.322,48.546,70.741,74.633,96.845 l34.304,34.304c10.513,10.496,20.471,12.723,26.991,12.723c8.303,0,16.102-3.422,22.554-9.873 c6.315-6.323,8.098-12.476,8.499-16.922c7.561,1.775,18.91,0.947,25.796-5.948c6.315-6.298,8.098-12.476,8.499-16.922 c7.561,1.775,18.91,0.973,25.796-5.922c6.315-6.323,8.098-12.476,8.491-16.922c7.612,1.673,18.927,0.922,25.796-5.948 c5.837-5.845,12.194-16.29,7.578-30.839c9.813-9.156,26.377-19.831,42.735-29.559c3.823,3.388,8.567,5.419,13.713,5.419 c5.598,0,10.846-2.176,14.763-6.127l62.891-62.874c8.141-8.149,8.141-21.376,0-29.525L368.7,74.368z M83.772,282.573l-56.209-56.226 L158.071,95.795l56.209,56.226L83.772,282.573z M347.034,346.539c-0.913,0-2.662-0.427-4.215-0.802 c-2.628-0.623-5.598-1.348-8.909-1.348c-6.673,0-11.025,2.953-13.508,5.427c-5.803,5.803-6.426,12.023-6.801,15.753 c-0.264,2.628-0.29,2.773-0.836,3.849c-0.913,0-2.662-0.427-4.215-0.802c-2.628-0.649-5.598-1.348-8.926-1.348 c-6.699,0-11.059,2.953-13.525,5.427c-5.803,5.803-6.426,12.023-6.801,15.727c-0.265,2.628-0.29,2.773-0.853,3.849 c-0.913,0-2.671-0.427-4.224-0.802c-2.611-0.623-5.572-1.323-8.9-1.323c-6.699,0-11.059,2.953-13.5,5.402 c-5.828,5.803-6.451,12.023-6.827,15.753c-0.265,2.628-0.29,2.773-1.775,4.275c-2.364,2.372-3.934,2.372-4.446,2.372 c-2.338,0-5.572-1.903-8.892-5.222l-34.304-34.304c-29.261-29.278-62.515-75.947-75.349-96.128l85.709-85.709l18.91,5.333 c-15.812,12.075-28.365,29.372-38.502,41.933c-3.362,4.173-6.025,7.526-7.902,9.404c-8.004,8.004-10.453,16.375-7.279,24.926 c2.338,6.349,7.441,11.452,13.901,17.903c5.751,5.751,12.996,8.798,20.966,8.798c16.316,0,31.94-12.373,47.053-24.354 c3.311-2.62,13.261-9.353,19.507-13.542c24.55,22.349,48.23,44.245,64.93,60.937C351.351,341.717,347.674,345.395,347.034,346.539z M357.914,312.422c-0.828-0.887-1.365-1.707-2.27-2.611c-21.897-21.897-50.466-45.338-68.036-62.174 c-5.393-5.171-15.121-3.618-22.69-1.289c-8.841,1.502-17.118,5.7-27.708,14.089c-10.027,7.953-23.748,18.825-31.164,18.825 c-0.998,0-6.801-4.122-7.902-5.222c-2.125-2.125,4.113-9.122,8.141-14.123c14.046-17.399,32.725-37.001,57.19-46.404 c20.796-8.004,35.26-4.557,54.4-4.267l77.781,76.902C381.619,294.656,368.145,303.676,357.914,312.422z M428.245,282.513 l-130.534-130.5l56.226-56.201l130.526,130.5L428.245,282.513z"/> </g>
</svg>