<?xml version="1.0" standalone="no"?>
<!DOCTYPE svg PUBLIC "-//W3C//DTD SVG 20010904//EN"
 "http://www.w3.org/TR/2001/REC-SVG-20010904/DTD/svg10.dtd">
<svg version="1.0" xmlns="http://www.w3.org/2000/svg"
 width="200.000000pt" height="200.000000pt" viewBox="0 0 200.000000 200.000000"
 preserveAspectRatio="xMidYMid meet">

<g transform="translate(0.000000,200.000000) scale(0.100000,-0.100000)"
fill="#000000" stroke="none">
<path d="M0 1000 l0 -920 1000 0 1000 0 0 920 0 920 -1000 0 -1000 0 0 -920z
m542 602 c37 -157 119 -309 231 -429 89 -94 151 -142 249 -193 l68 -36 -46
-79 c-55 -97 -157 -233 -256 -339 l-74 -80 -84 27 c-90 28 -147 61 -212 123
-39 37 -40 39 -36 96 2 32 7 60 10 63 3 3 26 -4 52 -15 44 -20 73 -20 61 0 -3
5 -25 18 -48 28 -50 23 -92 63 -118 114 -16 31 -17 45 -9 90 12 61 25 105 52
167 l18 43 31 -38 c34 -43 74 -72 85 -61 4 4 -12 27 -35 52 -65 70 -75 102
-75 235 0 97 3 124 23 173 21 54 73 127 90 127 4 0 14 -31 23 -68z m292 -59
c46 -122 99 -220 165 -301 50 -61 51 -63 41 -105 -5 -23 -10 -55 -10 -71 0
-30 5 -31 77 -10 22 6 22 5 12 -27 -7 -19 -15 -38 -20 -43 -11 -12 -132 56
-211 120 -73 59 -143 138 -197 222 -37 58 -37 78 0 177 18 48 81 135 98 135 4
0 24 -44 45 -97z m634 -49 c55 -19 104 -27 183 -31 60 -3 109 -10 109 -14 0
-5 -7 -9 -17 -9 -35 0 -125 -35 -157 -62 -19 -16 -46 -53 -61 -83 -19 -42 -31
-55 -47 -55 -12 0 -78 -26 -147 -59 -125 -58 -258 -107 -267 -99 -2 3 7 48 20
100 52 206 156 336 270 338 22 0 73 -12 114 -26z m24 -422 c20 -205 -9 -339
-102 -463 -87 -116 -226 -203 -445 -279 -97 -33 -375 -100 -417 -100 -7 0 15
23 48 52 304 267 505 525 570 732 18 56 21 60 69 80 27 11 95 42 150 68 54 26
103 44 107 40 4 -4 13 -63 20 -130z"/>
</g>
</svg>
