<?xml version="1.0" standalone="no"?>
<!DOCTYPE svg PUBLIC "-//W3C//DTD SVG 20010904//EN"
 "http://www.w3.org/TR/2001/REC-SVG-20010904/DTD/svg10.dtd">
<svg version="1.0" xmlns="http://www.w3.org/2000/svg"
 width="239.000000pt" height="45.000000pt" viewBox="0 0 239.000000 45.000000"
 preserveAspectRatio="xMidYMid meet">

<g transform="translate(0.000000,45.000000) scale(0.100000,-0.100000)"
fill="#ffffff" stroke="none">
<path d="M0 230 c0 -213 1 -220 20 -220 15 0 20 7 20 27 l0 26 23 -21 c70 -66
177 -40 226 55 31 60 -3 155 -69 192 -62 35 -126 24 -167 -29 -10 -12 -12 5
-13 88 0 95 -1 102 -20 102 -19 0 -20 -7 -20 -220z m226 6 c28 -28 34 -42 34
-75 0 -133 -176 -168 -210 -43 -21 81 26 152 102 152 32 0 47 -7 74 -34z"/>
<path d="M1760 345 c0 -42 -2 -45 -26 -45 -23 0 -25 -3 -22 -32 2 -25 8 -34
26 -36 21 -3 22 -7 22 -113 l0 -109 35 0 35 0 0 110 0 110 25 0 c22 0 25 4 25
35 0 31 -3 35 -25 35 -23 0 -25 4 -25 45 0 45 0 45 -35 45 -35 0 -35 0 -35
-45z"/>
<path d="M390 292 c-39 -21 -80 -89 -80 -134 0 -69 59 -141 125 -154 41 -7
112 23 133 57 24 38 -6 42 -47 7 -29 -26 -40 -29 -74 -25 -43 6 -80 36 -92 75
-6 22 -6 22 119 22 124 0 126 0 126 23 -1 36 -36 104 -64 122 -40 27 -105 30
-146 7z m105 -26 c30 -13 65 -58 65 -86 0 -6 -38 -10 -105 -10 -67 0 -105 4
-105 10 0 27 34 73 63 85 40 18 41 18 82 1z"/>
<path d="M728 294 c-16 -8 -28 -10 -28 -4 0 5 -16 10 -35 10 l-35 0 0 -145 0
-145 35 0 35 0 0 95 c0 105 14 135 65 135 51 0 65 -30 65 -135 l0 -95 35 0 35
0 0 99 c0 92 2 101 22 115 30 21 61 20 81 -2 13 -15 17 -39 17 -115 l0 -97 35
0 35 0 0 113 c0 124 -7 145 -62 173 -39 20 -92 13 -125 -18 -15 -14 -27 -19
-31 -12 -28 42 -95 55 -144 28z"/>
<path d="M1194 296 c-52 -23 -79 -71 -79 -141 0 -75 26 -116 89 -140 55 -21
109 -8 151 35 25 26 27 32 15 40 -22 14 -54 12 -76 -5 -29 -22 -62 -18 -92 13
l-27 27 110 5 c108 5 110 5 113 30 2 14 -8 45 -20 69 -38 72 -112 98 -184 67z
m112 -71 c14 -14 22 -30 19 -35 -8 -14 -145 -13 -145 0 0 21 49 60 75 60 14 0
37 -11 51 -25z"/>
<path d="M1520 293 c-17 -12 -25 -13 -28 -5 -2 7 -19 12 -38 12 l-34 0 0 -145
0 -145 35 0 35 0 0 89 c0 74 3 92 21 115 25 31 61 34 89 6 17 -17 20 -33 20
-115 l0 -95 35 0 35 0 0 105 c0 119 -12 155 -60 180 -38 20 -80 19 -110 -2z"/>
<path d="M1969 290 c-40 -21 -79 -87 -79 -133 0 -69 58 -139 125 -151 54 -10
120 24 146 77 40 78 7 182 -67 213 -45 19 -82 17 -125 -6z m118 -72 c32 -30
32 -90 -2 -123 -32 -33 -70 -32 -100 1 -71 76 27 192 102 122z"/>
<path d="M2306 295 c-33 -18 -39 -19 -31 -5 4 6 -8 10 -29 10 l-36 0 0 -145 0
-145 35 0 35 0 0 98 c0 107 9 126 59 134 17 2 29 14 38 36 13 31 13 32 -14 32
-16 0 -41 -7 -57 -15z"/>
</g>
</svg>
