<?xml version="1.0" standalone="no"?>
<!DOCTYPE svg PUBLIC "-//W3C//DTD SVG 20010904//EN"
 "http://www.w3.org/TR/2001/REC-SVG-20010904/DTD/svg10.dtd">
<svg version="1.0" xmlns="http://www.w3.org/2000/svg"
 width="500.000000pt" height="154.000000pt" viewBox="0 0 500.000000 154.000000"
 preserveAspectRatio="xMidYMid meet">

<g transform="translate(0.000000,154.000000) scale(0.100000,-0.100000)"
fill="#000000" stroke="none">
<path d="M402 1207 c-189 -189 -292 -299 -292 -312 0 -11 14 -35 30 -54 l31
-34 -31 -32 c-17 -17 -30 -42 -30 -55 0 -19 70 -95 297 -322 164 -164 301
-298 304 -298 13 0 619 607 619 620 0 8 -17 31 -37 52 l-37 38 37 38 c20 21
37 42 37 47 0 20 -595 605 -615 605 -13 0 -124 -104 -313 -293z m605 -19 c156
-156 283 -287 283 -293 0 -13 -562 -575 -575 -575 -5 0 -139 129 -297 287
l-288 288 287 287 c159 159 292 288 298 288 5 0 137 -127 292 -282z"/>
<path d="M492 1117 c-116 -117 -212 -217 -212 -222 0 -13 422 -435 435 -435
13 0 435 422 435 435 0 13 -422 435 -435 435 -6 0 -106 -96 -223 -213z m428
-222 c0 -6 -46 -56 -102 -112 l-103 -102 -109 105 -110 105 109 109 110 110
102 -102 c57 -57 103 -107 103 -113z"/>
<path d="M677 932 c-15 -15 -27 -32 -27 -37 0 -13 52 -65 65 -65 14 0 65 52
65 66 0 13 -53 64 -66 64 -6 0 -22 -13 -37 -28z"/>
<path d="M1650 855 c0 -97 4 -155 10 -155 6 0 10 30 10 70 l0 70 54 0 c100 0
136 25 136 94 0 56 -35 76 -131 76 l-79 0 0 -155z m170 115 c24 -24 25 -57 4
-85 -11 -15 -29 -20 -84 -23 l-70 -4 0 66 0 66 65 0 c52 0 69 -4 85 -20z"/>
<path d="M3780 948 c0 -57 -1 -60 -17 -46 -46 41 -122 28 -149 -24 -23 -44
-15 -132 15 -161 28 -29 100 -30 130 -3 19 18 21 18 21 2 0 -10 6 -16 13 -14
9 4 13 46 15 156 2 130 0 152 -13 152 -12 0 -15 -13 -15 -62z m-52 -44 c53
-15 71 -126 27 -169 -55 -56 -135 -12 -135 74 0 72 45 111 108 95z"/>
<path d="M4375 1000 c3 -5 26 -10 51 -10 l44 0 0 -145 c0 -122 2 -145 15 -145
13 0 15 23 15 145 l0 145 50 0 c28 0 50 5 50 10 0 6 -45 10 -116 10 -74 0
-113 -4 -109 -10z"/>
<path d="M4638 968 c11 -24 36 -94 56 -155 52 -156 59 -154 121 30 27 78 50
148 53 155 2 6 -2 12 -10 12 -8 0 -29 -49 -58 -135 -24 -74 -47 -135 -51 -135
-4 0 -27 60 -51 133 -31 92 -50 133 -61 135 -15 3 -15 0 1 -40z"/>
<path d="M1966 909 c-21 -17 -26 -18 -26 -5 0 9 -4 16 -10 16 -6 0 -10 -43
-10 -110 0 -67 4 -110 10 -110 6 0 10 30 10 69 0 86 12 118 45 127 14 3 25 12
25 20 0 19 -13 17 -44 -7z"/>
<path d="M2115 921 c-39 -17 -58 -50 -63 -106 -4 -52 -3 -56 32 -91 33 -33 40
-36 77 -31 50 7 76 29 90 77 13 43 -1 108 -30 134 -22 20 -78 29 -106 17z m82
-26 c50 -35 50 -135 0 -170 -69 -49 -152 40 -117 126 23 55 74 74 117 44z"/>
<path d="M2364 920 c-36 -14 -54 -50 -54 -105 0 -98 65 -149 141 -111 40 20
39 20 39 -7 0 -62 -78 -97 -130 -58 -37 27 -54 28 -38 1 16 -25 75 -42 117
-34 60 12 71 40 71 185 0 79 -4 129 -10 129 -5 0 -10 -7 -10 -15 0 -12 -6 -11
-32 5 -35 21 -60 24 -94 10z m74 -16 c29 -8 52 -52 52 -102 0 -91 -106 -128
-145 -51 -19 36 -19 82 0 119 18 35 48 46 93 34z"/>
<path d="M2636 909 c-21 -17 -26 -18 -26 -5 0 9 -4 16 -10 16 -6 0 -10 -43
-10 -110 0 -67 4 -110 10 -110 6 0 10 30 10 69 0 88 11 116 49 129 17 6 31 16
31 21 0 17 -25 13 -54 -10z"/>
<path d="M2781 917 c-27 -13 -49 -43 -39 -52 3 -3 17 5 31 19 31 31 70 33 97
6 36 -36 22 -52 -62 -69 -63 -13 -80 -28 -80 -68 0 -54 63 -78 123 -48 27 14
31 14 45 0 18 -17 30 -19 39 -5 3 6 -1 10 -9 10 -13 0 -16 15 -16 85 0 78 -2
88 -25 110 -27 27 -66 32 -104 12z m102 -141 c-3 -38 -21 -55 -66 -63 -43 -7
-67 9 -67 42 0 37 34 55 100 52 32 -2 35 -4 33 -31z"/>
<path d="M3035 914 c-19 -10 -31 -11 -33 -5 -2 6 -8 11 -13 11 -5 0 -9 -49 -9
-110 0 -67 4 -110 10 -110 6 0 10 33 10 80 0 73 3 83 25 105 26 27 64 32 83
13 8 -8 12 -46 12 -105 0 -55 4 -93 10 -93 6 0 10 28 10 65 0 108 33 157 95
141 28 -7 35 -30 35 -128 0 -45 4 -78 10 -78 6 0 10 37 10 90 0 84 -2 93 -26
117 -20 20 -31 24 -57 19 -17 -3 -38 -13 -46 -20 -14 -13 -19 -12 -40 5 -28
23 -47 24 -86 3z"/>
<path d="M3401 917 c-27 -13 -49 -43 -39 -52 3 -3 17 5 31 19 31 31 70 33 97
6 36 -36 23 -50 -59 -68 -68 -15 -81 -26 -81 -68 0 -57 59 -81 121 -49 27 14
31 14 45 0 18 -17 30 -19 39 -5 3 6 -1 10 -9 10 -13 0 -16 15 -16 85 0 78 -2
88 -25 110 -27 27 -66 32 -104 12z m109 -131 c0 -37 -30 -67 -76 -73 -46 -6
-68 11 -62 49 3 26 50 46 106 47 27 1 32 -2 32 -23z"/>
<path d="M3920 918 c-30 -16 -60 -72 -60 -113 0 -39 33 -93 66 -105 43 -17 72
-11 106 19 30 27 33 34 33 90 0 52 -4 64 -26 86 -30 30 -84 41 -119 23z m84
-19 c53 -24 59 -130 9 -169 -69 -54 -148 20 -122 115 16 56 60 78 113 54z"/>
<path d="M4176 909 c-21 -17 -26 -18 -26 -5 0 9 -4 16 -10 16 -6 0 -10 -43
-10 -110 0 -67 4 -110 10 -110 6 0 10 30 10 69 0 86 12 118 45 127 14 3 25 12
25 20 0 19 -13 17 -44 -7z"/>
<path d="M4290 715 c0 -8 5 -15 10 -15 6 0 10 7 10 15 0 8 -4 15 -10 15 -5 0
-10 -7 -10 -15z"/>
</g>
</svg>
