<?xml version="1.0" standalone="no"?>
<!DOCTYPE svg PUBLIC "-//W3C//DTD SVG 20010904//EN"
 "http://www.w3.org/TR/2001/REC-SVG-20010904/DTD/svg10.dtd">
<svg version="1.0" xmlns="http://www.w3.org/2000/svg"
 width="500.000000pt" height="195.000000pt" viewBox="0 0 500.000000 195.000000"
 preserveAspectRatio="xMidYMid meet">

<g transform="translate(0.000000,195.000000) scale(0.100000,-0.100000)"
fill="#000000" stroke="none">
<path d="M0 975 l0 -975 2500 0 2500 0 0 975 0 975 -2500 0 -2500 0 0 -975z
m1058 166 l-4 -199 25 32 c14 18 56 65 92 105 l66 72 71 -3 71 -3 -90 -98
c-61 -67 -87 -102 -81 -110 39 -51 182 -248 182 -252 0 -3 -33 -5 -72 -5 l-73
1 -60 86 c-33 47 -63 90 -67 96 -5 8 -16 3 -32 -13 -23 -21 -26 -31 -26 -97
l0 -73 -65 0 -65 0 0 330 0 330 66 0 67 0 -5 -199z m1912 -131 l0 -330 -53 0
c-50 0 -53 2 -65 33 -12 29 -14 30 -23 14 -14 -25 -86 -57 -127 -57 -112 -1
-175 88 -175 245 -1 159 61 245 178 245 50 0 77 -10 113 -43 l22 -20 0 121 0
122 65 0 65 0 0 -330z m-2197 275 c26 -9 47 -20 47 -25 0 -4 -9 -28 -20 -53
l-20 -45 -65 20 c-80 24 -131 19 -147 -17 -21 -46 -4 -70 83 -115 45 -23 98
-58 119 -76 107 -97 52 -263 -97 -294 -62 -13 -146 -8 -209 12 l-39 13 -3 64
c-3 58 -1 63 15 56 119 -50 202 -57 238 -20 47 47 26 78 -97 141 -74 39 -96
55 -119 93 -64 100 -21 220 92 257 53 17 154 12 222 -11z m1100 0 c26 -9 47
-18 47 -20 0 -4 -41 -99 -44 -102 -1 -2 -28 6 -59 17 -69 25 -91 25 -143 1
-59 -27 -87 -89 -88 -190 0 -92 16 -142 55 -175 48 -41 111 -43 237 -10 21 6
22 3 22 -48 l0 -55 -42 -13 c-167 -50 -317 0 -379 128 -20 41 -23 62 -24 162
0 99 3 122 23 165 37 80 100 133 187 156 43 12 152 3 208 -16z m461 -150 c112
-54 151 -259 72 -374 -42 -61 -97 -86 -186 -86 -64 0 -82 4 -122 28 -67 39
-100 98 -106 192 -8 123 36 208 128 250 47 21 162 16 214 -10z m1061 6 c77
-35 115 -103 115 -208 l0 -53 -150 0 c-145 0 -150 -1 -150 -21 0 -76 98 -110
216 -74 27 8 50 15 52 15 1 0 2 -22 2 -50 l0 -49 -52 -16 c-139 -41 -276 2
-327 103 -42 83 -34 213 17 287 54 79 182 110 277 66z m525 -10 c0 -16 -3 -43
-6 -60 -6 -27 -10 -31 -41 -31 -18 0 -49 -7 -69 -15 -53 -22 -64 -60 -64 -215
l0 -130 -65 0 -65 0 0 236 0 235 52 -3 c44 -2 53 -6 56 -23 8 -48 12 -49 45
-18 45 43 66 52 115 53 40 0 42 -2 42 -29z m358 14 c29 -9 52 -20 52 -26 0 -5
-9 -27 -20 -49 l-20 -39 -35 15 c-45 19 -121 22 -137 6 -19 -19 1 -44 58 -69
133 -61 159 -88 159 -163 0 -56 -23 -94 -75 -124 -41 -25 -157 -32 -225 -14
l-50 13 -3 53 c-2 28 1 52 6 52 5 0 29 -7 52 -15 55 -20 144 -20 160 0 22 27
0 50 -95 98 -103 53 -125 77 -125 142 0 87 64 134 181 135 36 0 89 -7 117 -15z
m266 -351 c46 -46 19 -116 -47 -122 -67 -6 -104 71 -57 118 24 24 82 27 104 4z"/>
<path d="M2713 1050 c-34 -14 -53 -61 -53 -135 0 -69 17 -118 45 -129 9 -3 34
-6 55 -6 30 0 43 6 60 27 19 25 21 38 18 115 -2 72 -7 91 -23 107 -24 23 -72
33 -102 21z"/>
<path d="M2179 1049 c-39 -15 -54 -52 -54 -135 0 -88 22 -127 75 -132 86 -9
114 29 108 149 -2 62 -7 83 -23 99 -24 24 -71 33 -106 19z"/>
<path d="M3239 1041 c-16 -16 -29 -39 -29 -50 0 -20 6 -21 91 -21 l91 0 -6 28
c-4 15 -18 37 -32 50 -36 31 -79 29 -115 -7z"/>
</g>
</svg>
