<?xml version="1.0" standalone="no"?>
<!DOCTYPE svg PUBLIC "-//W3C//DTD SVG 20010904//EN"
 "http://www.w3.org/TR/2001/REC-SVG-20010904/DTD/svg10.dtd">
<svg version="1.0" xmlns="http://www.w3.org/2000/svg"
 width="500.000000pt" height="500.000000pt" viewBox="0 0 500.000000 500.000000"
 preserveAspectRatio="xMidYMid meet">

<g transform="translate(0.000000,500.000000) scale(0.100000,-0.100000)"
fill="#ffffff" stroke="none">
<path d="M1198 3534 c-21 -21 2 -62 122 -212 72 -90 130 -167 130 -172 0 -5
-78 -11 -172 -12 l-173 -3 -3 -25 c-2 -22 8 -34 65 -74 393 -282 893 -651 893
-659 0 -13 -105 -702 -145 -952 -27 -170 -28 -180 -11 -194 36 -30 49 -10 206
304 l156 310 174 76 c96 42 319 138 494 215 175 76 327 145 336 154 10 8 36
74 58 145 22 72 64 203 92 293 l51 162 203 0 c212 0 226 3 226 45 0 15 -44 48
-192 139 l-191 120 -91 -47 c-50 -26 -197 -103 -326 -172 -129 -69 -235 -125
-237 -125 -1 0 -88 105 -193 234 l-192 234 -97 17 c-53 9 -229 41 -391 70
-808 145 -781 141 -792 129z m327 -124 c94 -17 208 -37 255 -45 141 -25 419
-75 520 -94 68 -13 95 -22 94 -32 -3 -29 -297 -750 -305 -747 -7 3 -649 800
-733 911 -18 24 -24 37 -15 37 8 0 91 -14 184 -30z m1289 -625 c184 -225 336
-413 336 -417 0 -4 -26 -5 -57 -3 -92 9 -419 33 -663 51 -124 8 -234 19 -246
22 -19 7 -12 27 130 385 83 207 154 376 158 375 3 -2 157 -187 342 -413z m841
231 l70 -45 -112 -1 c-62 0 -113 3 -113 7 0 3 7 30 17 59 19 61 10 62 138 -20z
m-1958 -164 c94 -119 170 -219 168 -221 -5 -5 -594 422 -594 432 -1 4 56 7
127 6 l127 0 172 -217z m1743 202 c0 -3 -27 -89 -59 -192 -58 -182 -112 -353
-132 -419 -6 -18 -14 -33 -19 -33 -11 0 -305 359 -305 372 0 10 490 278 508
278 4 0 7 -3 7 -6z m-970 -719 c102 -8 255 -19 341 -26 86 -6 180 -14 210 -18
l54 -8 -36 -16 c-198 -88 -773 -337 -775 -335 -3 4 -104 408 -104 420 0 5 28
6 63 3 34 -3 145 -12 247 -20z m-314 -300 l38 -155 -89 -180 c-49 -98 -91
-178 -93 -176 -1 2 20 151 48 330 27 180 50 329 50 331 0 3 2 5 4 5 2 0 21
-70 42 -155z"/>
</g>
</svg>
